<svg width="24" height="24" viewBox="0 0 24 24" fill="none" xmlns="http://www.w3.org/2000/svg">
<path d="M4.675 15.7125L8.21 19.2462C7.97938 19.485 7.70352 19.6755 7.39851 19.8065C7.0935 19.9375 6.76545 20.0065 6.4335 20.0094C6.10155 20.0123 5.77236 19.949 5.46511 19.8233C5.15787 19.6976 4.87874 19.512 4.64401 19.2772C4.40928 19.0425 4.22365 18.7634 4.09795 18.4561C3.97224 18.1489 3.90899 17.8197 3.91187 17.4877C3.91476 17.1558 3.98372 16.8277 4.11475 16.5227C4.24577 16.2177 4.43622 15.9419 4.675 15.7112V15.7125ZM15.7587 22.3675L14.875 23.25L0.75 9.12499L1.6325 8.24124L3.01 8.43749C3.9525 8.57249 5.1225 8.28499 5.60625 7.79999L10.4625 2.94499C11.8719 1.56214 13.7702 0.791616 15.7446 0.800988C17.7191 0.81036 19.61 1.59887 21.0062 2.99504C22.4024 4.39121 23.1909 6.28213 23.2003 8.2566C23.2096 10.2311 22.4391 12.1294 21.0563 13.5387L16.2 18.3962C15.715 18.8812 15.4275 20.05 15.5625 20.9925L15.7587 22.3675Z" fill="white"/>
</svg>
