<svg width="202" height="48" viewBox="0 0 202 48" fill="none" xmlns="http://www.w3.org/2000/svg">
<g clip-path="url(#clip0)">
<path fill-rule="evenodd" clip-rule="evenodd" d="M170.445 3.32956H164.112L164.112 38.3995H170.445V3.32956Z" fill="white"/>
<path fill-rule="evenodd" clip-rule="evenodd" d="M181.955 23.5553C182.539 19.7598 185.169 17.3582 188.92 17.3582C192.865 17.3582 195.448 19.7598 195.593 23.5553H181.955ZM188.872 12.506C181.078 12.506 175.623 17.7907 175.623 25.6214C175.623 33.3561 180.933 38.6401 189.019 38.6401C193.597 38.6401 197.396 37.0066 199.978 34.2202L196.568 30.7134C194.717 32.5873 192.233 33.5958 189.554 33.5958C185.754 33.5958 182.929 31.3861 182.102 27.735H201.341C201.974 18.4151 198.029 12.506 188.872 12.506Z" fill="white"/>
<path fill-rule="evenodd" clip-rule="evenodd" d="M54.617 12.4578C50.3794 12.5054 47.1159 14.0906 45.265 17.5021V12.6975H38.9327V38.3998H45.265V25.7658C45.265 21.5373 47.7973 18.4152 52.0839 18.3669C55.6884 18.3669 57.8797 20.5772 57.8797 24.18V38.3998H64.261V22.3537C64.261 16.2533 60.6081 12.4578 54.617 12.4578Z" fill="white"/>
<path fill-rule="evenodd" clip-rule="evenodd" d="M70.0197 38.3991H76.3519V12.6974H70.0197V38.3991Z" fill="white"/>
<path fill-rule="evenodd" clip-rule="evenodd" d="M116.256 12.4578C111.677 12.5054 108.267 14.4277 106.563 18.6066C105.344 14.7157 102.179 12.4578 97.5994 12.4578C93.4592 12.5054 90.2447 14.0436 88.4428 17.4538V12.6975H82.1106V38.3998H88.4428V25.7168C88.4428 21.5373 90.9268 18.4622 95.0664 18.3192C98.5736 18.3192 100.717 20.5282 100.717 24.18V38.3998H107.098V25.7168C107.098 21.5373 109.582 18.4622 113.674 18.3192C117.18 18.3192 119.373 20.5282 119.373 24.18V38.3998H125.753V22.3537C125.753 16.2533 122.148 12.4578 116.256 12.4578Z" fill="white"/>
<path fill-rule="evenodd" clip-rule="evenodd" d="M145.2 33.2596C140.864 33.2596 137.845 30.0892 137.845 25.4772C137.845 20.9613 140.864 17.7419 145.2 17.7419C149.486 17.7419 152.506 20.9613 152.506 25.4772C152.506 30.0408 149.486 33.2596 145.2 33.2596ZM146.612 12.5055C142.716 12.5055 139.695 14.0907 137.845 16.9255V3.32935H131.512V38.3999H137.845V34.2204C139.744 37.0544 142.764 38.6403 146.71 38.6403C154.113 38.6403 158.936 33.4039 158.936 25.6686C158.936 17.7909 153.968 12.5055 146.612 12.5055Z" fill="white"/>
<path opacity="0.3" fill-rule="evenodd" clip-rule="evenodd" d="M70.0197 9.57483H76.3519V3.32935H70.0197V9.57483Z" fill="white"/>
<path opacity="0.5" fill-rule="evenodd" clip-rule="evenodd" d="M0 19.2006H9.73331V9.60059H0V19.2006Z" fill="white"/>
<path opacity="0.6" fill-rule="evenodd" clip-rule="evenodd" d="M9.73334 9.60037L19.4667 19.2004H9.73334V9.60037Z" fill="white"/>
<path opacity="0.4" fill-rule="evenodd" clip-rule="evenodd" d="M0 28.8005H9.73331V19.2005H0V28.8005Z" fill="white"/>
<path opacity="0.3" fill-rule="evenodd" clip-rule="evenodd" d="M0 48H9.73331V38.4007H0V48Z" fill="white"/>
<path opacity="0.5" fill-rule="evenodd" clip-rule="evenodd" d="M9.73334 28.8005H19.4667V19.2005H9.73334V28.8005Z" fill="white"/>
<path opacity="0.6" fill-rule="evenodd" clip-rule="evenodd" d="M19.4667 28.8005H29.2V19.2005H19.4667V28.8005Z" fill="white"/>
<path opacity="0.7" fill-rule="evenodd" clip-rule="evenodd" d="M19.4667 9.59998H29.2V0H19.4667V9.59998Z" fill="white"/>
<path opacity="0.4" fill-rule="evenodd" clip-rule="evenodd" d="M9.73334 28.8004H19.4667V38.4003L9.73334 28.8004Z" fill="white"/>
<path opacity="0.5" fill-rule="evenodd" clip-rule="evenodd" d="M19.4667 38.4008H29.2V28.8008H19.4667V38.4008Z" fill="white"/>
</g>
<defs>
<clipPath id="clip0">
<rect width="201.407" height="48" fill="white"/>
</clipPath>
</defs>
</svg>
