<svg width="24" height="24" viewBox="0 0 24 24" fill="none" xmlns="http://www.w3.org/2000/svg">
<path fill-rule="evenodd" clip-rule="evenodd" d="M0 12C0 5.37258 5.37258 0 12 0C18.6274 0 24 5.37258 24 12C24 18.6274 18.6274 24 12 24C5.37258 24 0 18.6274 0 12Z" fill="white"/>
<path d="M10.5535 14.2422L17.0048 7.79084C17.3926 7.40305 18.0213 7.40305 18.4091 7.79084C18.7969 8.17863 18.7969 8.80736 18.4091 9.19515L10.5535 17.0508L5.99079 12.4881C5.603 12.1004 5.603 11.4716 5.99079 11.0838C6.37858 10.696 7.00731 10.696 7.3951 11.0838L10.5535 14.2422Z" fill="#15151A"/>
</svg>
